<svg width="164" height="179" viewBox="0 0 164 179" fill="none" xmlns="http://www.w3.org/2000/svg">
<g filter="url(#filter0_d_18_9895)">
<rect x="20" y="17.3643" width="104" height="413" rx="52" fill="#043A53"/>
<rect x="36" y="33.3643" width="72" height="72" rx="36" fill="white" fill-opacity="0.16"/>
<g clip-path="url(#clip0_18_9895)">
<path d="M72.0002 79.7975L60.2452 86.3775L62.8702 73.1642L52.9785 64.0175L66.3569 62.4308L72.0002 50.1975L77.6435 62.4308L91.0219 64.0175L81.1302 73.1642L83.7552 86.3775L72.0002 79.7975ZM72.0002 75.9775L79.0785 79.9392L77.4969 71.9842L83.4519 66.4758L75.3969 65.5208L72.0002 58.1558L68.6035 65.5225L60.5485 66.4758L66.5035 71.9842L64.9218 79.9392L72.0002 75.9775Z" fill="white"/>
</g>
</g>
<defs>
<filter id="filter0_d_18_9895" x="0" y="0.364258" width="164" height="473" filterUnits="userSpaceOnUse" color-interpolation-filters="sRGB">
<feFlood flood-opacity="0" result="BackgroundImageFix"/>
<feColorMatrix in="SourceAlpha" type="matrix" values="0 0 0 0 0 0 0 0 0 0 0 0 0 0 0 0 0 0 127 0" result="hardAlpha"/>
<feOffset dx="10" dy="13"/>
<feGaussianBlur stdDeviation="15"/>
<feComposite in2="hardAlpha" operator="out"/>
<feColorMatrix type="matrix" values="0 0 0 0 0.0156863 0 0 0 0 0.227451 0 0 0 0 0.32549 0 0 0 0.24 0"/>
<feBlend mode="normal" in2="BackgroundImageFix" result="effect1_dropShadow_18_9895"/>
<feBlend mode="normal" in="SourceGraphic" in2="effect1_dropShadow_18_9895" result="shape"/>
</filter>
<clipPath id="clip0_18_9895">
<rect width="40" height="40" fill="white" transform="translate(52 49.3643)"/>
</clipPath>
</defs>
</svg>
